<svg xmlns="http://www.w3.org/2000/svg" viewBox="275.0 151.6 460.8 128.1"><style>.st1{fill:#4a4a4b}.st3{fill:#9ab6df}</style><path class="st1" d="M343.55,159.64c20.17,29.46-20.64,87.37-20.64,87.37h-10.37l-29.58-75.98h10.77l23.99,65.15s31.56-44.23,25.09-76.54"/><path class="st1" d="M362.23,184.78c-.94-.54-1.67-1.28-2.21-2.21-.54-.93-.81-1.98-.81-3.13s.27-2.19.81-3.13c.54-.93,1.28-1.67,2.21-2.21.93-.54,1.98-.81,3.13-.81s2.19.27,3.13.81c.93.54,1.67,1.28,2.21,2.21.54.94.81,1.98.81,3.13s-.27,2.2-.81,3.13c-.54.94-1.28,1.67-2.21,2.21-.94.54-1.98.81-3.13.81s-2.2-.27-3.13-.81ZM369.9,194.01v53.96h-9.07v-53.96h9.07Z"/><path class="st1" d="M386.08,194.01h9.07v77.7h-9.07v-77.7ZM401.79,245.54c-4.07-2.34-7.2-5.63-9.39-9.88-2.2-4.24-3.29-9.14-3.29-14.68s1.1-10.43,3.29-14.68c2.19-4.24,5.32-7.54,9.39-9.88,4.06-2.34,8.79-3.51,14.19-3.51,4.89,0,9.44,1.26,13.65,3.78,4.21,2.52,7.57,5.94,10.09,10.25,2.52,4.32,3.78,8.99,3.78,14.03s-1.26,9.71-3.78,14.03c-2.52,4.32-5.88,7.73-10.09,10.25-4.21,2.52-8.76,3.78-13.65,3.78-5.4,0-10.13-1.17-14.19-3.51ZM424.99,237.61c2.91-1.73,5.22-4.05,6.91-6.96,1.69-2.91,2.54-6.13,2.54-9.66s-.85-6.75-2.54-9.66c-1.69-2.91-3.99-5.23-6.91-6.96-2.91-1.73-6.13-2.59-9.66-2.59-3.89,0-7.36.85-10.42,2.54-3.06,1.69-5.45,4.01-7.18,6.96-1.73,2.95-2.59,6.19-2.59,9.71s.86,6.76,2.59,9.71c1.73,2.95,4.12,5.27,7.18,6.96,3.06,1.69,6.53,2.54,10.42,2.54,3.52,0,6.75-.86,9.66-2.59Z"/><path class="st1" d="M468,245.32c-4.61-2.48-8.22-5.88-10.85-10.2-2.63-4.32-3.94-9.03-3.94-14.14s1.24-9.91,3.72-14.19c2.48-4.28,5.86-7.66,10.14-10.14,4.28-2.48,9.05-3.72,14.3-3.72s9.98,1.22,14.19,3.67c4.21,2.45,7.52,5.81,9.93,10.09,2.41,4.28,3.62,9.05,3.62,14.3,0,1.01-.07,2.16-.22,3.45h-50.51v-8.2h46.08l-4.42,4.75c0-3.67-.77-6.96-2.32-9.87-1.55-2.91-3.74-5.2-6.58-6.85-2.84-1.65-6.1-2.48-9.77-2.48s-6.96.85-9.87,2.54c-2.91,1.69-5.18,3.99-6.8,6.91-1.62,2.91-2.43,6.17-2.43,9.77s.88,6.76,2.64,9.71c1.76,2.95,4.26,5.27,7.5,6.96,3.24,1.69,6.94,2.54,11.12,2.54,4.46,0,8.56-.81,12.3-2.43,3.74-1.62,6.87-3.79,9.39-6.53h.54v10.36c-2.02,2.16-5.02,3.94-9.01,5.34-3.99,1.4-8.4,2.1-13.22,2.1-5.76,0-10.94-1.24-15.54-3.72Z"/><path class="st1" d="M521.52,194.01h9.07v53.96h-9.07v-53.96ZM529.51,224.77v-9.93c0-4.03.92-7.66,2.75-10.9,1.83-3.24,4.35-5.77,7.55-7.61,3.2-1.83,6.78-2.75,10.74-2.75h2.48v9.07h-2.48c-3.89,0-7.36,1.01-10.42,3.02-3.06,2.01-5.41,4.71-7.07,8.09-1.66,3.38-2.48,7.05-2.48,11.01h-1.08Z"/><path class="st1" d="M564.48,172.42h31.84c5.83,0,10.95,1.02,15.38,3.08s7.82,4.84,10.2,8.36c2.37,3.53,3.56,7.48,3.56,11.87,0,7.48-2.61,13.38-7.82,17.7-5.22,4.32-12.32,6.47-21.31,6.47h-24.07v-8.85h24.07c6.33,0,11.19-1.31,14.57-3.94,3.38-2.63,5.07-6.35,5.07-11.17,0-2.66-.77-5.07-2.32-7.23-1.55-2.16-3.8-3.87-6.75-5.13-2.95-1.26-6.48-1.89-10.58-1.89h-26.44l4.1-4.1v70.36h-9.5v-75.54Z"/><path class="st1" d="M636.03,194.01h9.07v53.96h-9.07v-53.96ZM644.01,224.77v-9.93c0-4.03.92-7.66,2.75-10.9,1.83-3.24,4.35-5.77,7.55-7.61,3.2-1.83,6.78-2.75,10.74-2.75h2.48v9.07h-2.48c-3.89,0-7.36,1.01-10.42,3.02-3.06,2.01-5.41,4.71-7.07,8.09-1.66,3.38-2.48,7.05-2.48,11.01h-1.08Z"/><path class="st1" d="M685.46,245.27c-4.32-2.52-7.73-5.92-10.25-10.2-2.52-4.28-3.78-8.97-3.78-14.08s1.26-9.8,3.78-14.08c2.52-4.28,5.94-7.68,10.25-10.2,4.32-2.52,9.03-3.78,14.14-3.78s9.82,1.26,14.14,3.78c4.32,2.52,7.73,5.92,10.25,10.2,2.52,4.28,3.78,8.98,3.78,14.08s-1.26,9.8-3.78,14.08c-2.52,4.28-5.94,7.68-10.25,10.2-4.32,2.52-9.03,3.78-14.14,3.78s-9.82-1.26-14.14-3.78ZM709.25,237.61c2.91-1.73,5.22-4.05,6.91-6.96,1.69-2.91,2.54-6.13,2.54-9.66s-.85-6.75-2.54-9.66c-1.69-2.91-3.99-5.23-6.91-6.96s-6.13-2.59-9.66-2.59-6.75.86-9.66,2.59c-2.91,1.73-5.22,4.05-6.91,6.96-1.69,2.91-2.54,6.13-2.54,9.66s.84,6.75,2.54,9.66c1.69,2.91,3.99,5.23,6.91,6.96,2.91,1.73,6.13,2.59,9.66,2.59s6.75-.86,9.66-2.59Z"/><path class="st3" d="M468,245.32c-4.61-2.48-8.22-5.88-10.85-10.2-2.63-4.32-3.94-9.03-3.94-14.14s1.24-9.91,3.72-14.19c2.48-4.28,5.86-7.66,10.14-10.14,4.28-2.48,9.05-3.72,14.3-3.72s9.98,1.22,14.19,3.67c4.21,2.45,7.52,5.81,9.93,10.09,2.41,4.28,3.62,9.05,3.62,14.3,0,1.01-.07,2.16-.22,3.45h-50.51v-8.2h46.08l-4.42,4.75c0-3.67-.77-6.96-2.32-9.87-1.55-2.91-3.74-5.2-6.58-6.85-2.84-1.65-6.1-2.48-9.77-2.48s-6.96.85-9.87,2.54c-2.91,1.69-5.18,3.99-6.8,6.91-1.62,2.91-2.43,6.17-2.43,9.77s.88,6.76,2.64,9.71c1.76,2.95,4.26,5.27,7.5,6.96,3.24,1.69,6.94,2.54,11.12,2.54,4.46,0,8.56-.81,12.3-2.43,3.74-1.62,6.87-3.79,9.39-6.53h.54v10.36c-2.02,2.16-5.02,3.94-9.01,5.34-3.99,1.4-8.4,2.1-13.22,2.1-5.76,0-10.94-1.24-15.54-3.72Z"/><path class="st3" d="M521.52,194.01h9.07v53.96h-9.07v-53.96ZM529.51,224.77v-9.93c0-4.03.92-7.66,2.75-10.9,1.83-3.24,4.35-5.77,7.55-7.61,3.2-1.83,6.78-2.75,10.74-2.75h2.48v9.07h-2.48c-3.89,0-7.36,1.01-10.42,3.02-3.06,2.01-5.41,4.71-7.07,8.09-1.66,3.38-2.48,7.05-2.48,11.01h-1.08Z"/></svg>